<?xml version="1.0" encoding="UTF-8"?>
<svg version="1.1" xmlns="http://www.w3.org/2000/svg" width="48" height="48">
<path d="M0 0 C7.92 0 15.84 0 24 0 C28 7 28 7 28 9 C29.98 9 31.96 9 34 9 C34 14.94 34 20.88 34 27 C32.02 27 30.04 27 28 27 C27.71125 27.928125 27.4225 28.85625 27.125 29.8125 C26 33 26 33 24 36 C21.56982422 36.34057617 21.56982422 36.34057617 18.5546875 36.29296875 C17.47832031 36.28330078 16.40195312 36.27363281 15.29296875 36.26367188 C14.16503906 36.23853516 13.03710938 36.21339844 11.875 36.1875 C10.73933594 36.17396484 9.60367187 36.16042969 8.43359375 36.14648438 C5.62192613 36.11104319 2.81119583 36.06163517 0 36 C-1.54193728 33.46917897 -3.05800484 30.92794722 -4.5625 28.375 C-5.21895508 27.30572266 -5.21895508 27.30572266 -5.88867188 26.21484375 C-7.79619671 22.94050979 -8.99207772 20.77638319 -9.03125 16.9375 C-7.72467124 13.2157302 -5.97160054 9.99203607 -3.9375 6.625 C-2.638125 4.43875 -1.33875 2.2525 0 0 Z " fill="#45D6F1" transform="translate(12,6)"/>
<path d="M0 0 C3.69230769 0.69230769 3.69230769 0.69230769 5 2 C9.32490853 2.4652292 13.65935537 2.70500473 18 3 C18 8.94 18 14.88 18 21 C13.38 21 8.76 21 4 21 C3.67 21.99 3.34 22.98 3 24 C1.68 24 0.36 24 -1 24 C-1.33 23.34 -1.66 22.68 -2 22 C-2.763125 21.773125 -3.52625 21.54625 -4.3125 21.3125 C-7.61990597 19.69725522 -8.74677707 18.08966827 -10.40625 14.87109375 C-11.39785679 11.74622762 -10.44717946 9.83143808 -9 7 C-6.88943868 3.38189488 -4.91907681 2.3407368 -1 1 C-0.67 0.67 -0.34 0.34 0 0 Z " fill="#BABCBC" transform="translate(28,12)"/>
<path d="M0 0 C2.64 0 5.28 0 8 0 C8.33 0.66 8.66 1.32 9 2 C11.02463255 2.65213292 11.02463255 2.65213292 13 3 C13.33 2.01 13.66 1.02 14 0 C15.65 0.33 17.3 0.66 19 1 C19 1.66 19 2.32 19 3 C20.97536745 2.65213292 20.97536745 2.65213292 23 2 C23.33 1.34 23.66 0.68 24 0 C26.64 0 29.28 0 32 0 C30.94124926 3.40312738 29.99097846 6.01353231 28 9 C25.56982422 9.34057617 25.56982422 9.34057617 22.5546875 9.29296875 C21.47832031 9.28330078 20.40195312 9.27363281 19.29296875 9.26367188 C18.16503906 9.23853516 17.03710938 9.21339844 15.875 9.1875 C14.73933594 9.17396484 13.60367187 9.16042969 12.43359375 9.14648438 C9.62192613 9.11104319 6.81119583 9.06163517 4 9 C0 2.25 0 2.25 0 0 Z " fill="#464748" transform="translate(8,33)"/>
<path d="M0 0 C2.43017578 -0.34057617 2.43017578 -0.34057617 5.4453125 -0.29296875 C6.52167969 -0.28330078 7.59804688 -0.27363281 8.70703125 -0.26367188 C10.39892578 -0.2259668 10.39892578 -0.2259668 12.125 -0.1875 C13.26066406 -0.17396484 14.39632813 -0.16042969 15.56640625 -0.14648438 C18.37807387 -0.11104319 21.18880417 -0.06163517 24 0 C28 6.75 28 6.75 28 9 C24.625 9.125 24.625 9.125 21 9 C20.34 8.34 19.68 7.68 19 7 C17.10332891 7.28552357 17.10332891 7.28552357 15 8 C12.375 8.6875 12.375 8.6875 10 9 C9.34 8.34 8.68 7.68 8 7 C5.93125966 6.3574765 5.93125966 6.3574765 4 6 C3.67 6.99 3.34 7.98 3 9 C0.69 9 -1.62 9 -4 9 C-2.94124926 5.59687262 -1.99097846 2.98646769 0 0 Z " fill="#5B5D5D" transform="translate(12,6)"/>
<path d="M0 0 C2.25 0.0625 2.25 0.0625 5 1 C6.89752143 3.12682915 8.12308457 5.28848518 9 8 C8.4375 10.625 8.4375 10.625 7 13 C6.46375 13.928125 5.9275 14.85625 5.375 15.8125 C4.92125 16.534375 4.4675 17.25625 4 18 C1.75 17.9375 1.75 17.9375 -1 17 C-2.93732935 14.88122893 -4.14652921 12.74009044 -5 10 C-4.27817993 5.90968625 -2.66460866 3.14908296 0 0 Z " fill="#C0C4C5" transform="translate(22,15)"/>
<path d="M0 0 C1.9140625 0.078125 1.9140625 0.078125 4 1 C5.7734375 3.109375 5.7734375 3.109375 7.375 5.75 C7.91898438 6.61109375 8.46296875 7.4721875 9.0234375 8.359375 C10 11 10 11 9.3125 13.55859375 C8.6628125 14.76708984 8.6628125 14.76708984 8 16 C7.62101562 16.73863281 7.24203125 17.47726563 6.8515625 18.23828125 C6.44679688 18.92277344 6.04203125 19.60726563 5.625 20.3125 C5.22539063 21.00988281 4.82578125 21.70726563 4.4140625 22.42578125 C3.71410156 23.20501953 3.71410156 23.20501953 3 24 C1.68 24 0.36 24 -1 24 C-1.75 22.4375 -1.75 22.4375 -2 20 C-1.10546875 18.3515625 -1.10546875 18.3515625 0.0625 16.5625 C1.21477617 14.78335249 1.21477617 14.78335249 2 13 C1.48046297 10.36723913 1.48046297 10.36723913 0 8 C-0.67795528 6.00379834 -1.34733531 4.00461299 -2 2 C-1.34 1.34 -0.68 0.68 0 0 Z " fill="#40CBEB" transform="translate(28,12)"/>
<path d="M0 0 C2.01044262 -0.00355202 4.01971161 0.14435392 6.0234375 0.30859375 C5.71148437 0.82808594 5.39953125 1.34757812 5.078125 1.8828125 C2.4972324 6.19468659 2.4972324 6.19468659 2.6484375 10.99609375 C3.1021875 11.75921875 3.5559375 12.52234375 4.0234375 13.30859375 C5.0234375 15.80859375 5.0234375 15.80859375 6.0234375 18.30859375 C3.3834375 18.30859375 0.7434375 18.30859375 -1.9765625 18.30859375 C-5.99479779 12.22035846 -5.99479779 12.22035846 -5.9140625 8.18359375 C-3.4195936 0.53388912 -3.4195936 0.53388912 0 0 Z " fill="#C2C5C6" transform="translate(8.9765625,14.69140625)"/>
<path d="M0 0 C1.32 0.33 2.64 0.66 4 1 C3.54367188 1.66386719 3.08734375 2.32773438 2.6171875 3.01171875 C2.04226562 3.89472656 1.46734375 4.77773438 0.875 5.6875 C0.29492188 6.55761719 -0.28515625 7.42773438 -0.8828125 8.32421875 C-2.30394403 10.95420175 -2.30394403 10.95420175 -1.2734375 13.6328125 C-0.64308594 14.80457031 -0.64308594 14.80457031 0 16 C0.495 17.051875 0.99 18.10375 1.5 19.1875 C2.84618694 22.04029469 2.84618694 22.04029469 5 24 C1.73600089 23.70428726 0.36243906 23.40178526 -1.87109375 20.92578125 C-6.1020233 13.86719804 -6.1020233 13.86719804 -5.625 9.8125 C-5.08875 8.884375 -4.5525 7.95625 -4 7 C-3.65453125 6.36707031 -3.3090625 5.73414063 -2.953125 5.08203125 C-2.00774191 3.36595542 -1.00802645 1.68004408 0 0 Z " fill="#12A0D5" transform="translate(16,12)"/>
<path d="M0 0 C1.32 0.33 2.64 0.66 4 1 C1.69 4.63 -0.62 8.26 -3 12 C-3.66 10.68 -4.32 9.36 -5 8 C-4.1015625 5.859375 -4.1015625 5.859375 -2.625 3.75 C-2.14289062 3.04359375 -1.66078125 2.3371875 -1.1640625 1.609375 C-0.77992187 1.07828125 -0.39578125 0.5471875 0 0 Z " fill="#0896D0" transform="translate(31,24)"/>
<path d="M0 0 C2.65204896 0.36834013 3.73840056 0.6867691 5.484375 2.77734375 C5.90203125 3.49019531 6.3196875 4.20304687 6.75 4.9375 C7.17796875 5.64777344 7.6059375 6.35804687 8.046875 7.08984375 C9 9 9 9 9 11 C8.01 11 7.02 11 6 11 C4.39453125 8.84765625 4.39453125 8.84765625 2.8125 6.0625 C2.28269531 5.14597656 1.75289062 4.22945312 1.20703125 3.28515625 C0 1 0 1 0 0 Z " fill="#4EDEF5" transform="translate(28,12)"/>
<path d="M0 0 C0.99 0.33 1.98 0.66 3 1 C1.8141763 4.37503669 0.72426311 6.64722731 -2 9 C-2.6875 7.3125 -2.6875 7.3125 -3 5 C-1.5625 2.25 -1.5625 2.25 0 0 Z " fill="#50DEF5" transform="translate(19,13)"/>
<path d="M0 0 C0.33 0.99 0.66 1.98 1 3 C-0.9375 6.1875 -0.9375 6.1875 -3 9 C-3.99 8.67 -4.98 8.34 -6 8 C-2.25 1.125 -2.25 1.125 0 0 Z " fill="#22B2DE" transform="translate(34,27)"/>
<path d="M0 0 C0.99 0 1.98 0 3 0 C3.28875 0.61875 3.5775 1.2375 3.875 1.875 C4.93720042 4.13325765 4.93720042 4.13325765 7 6 C4.625 5.8125 4.625 5.8125 2 5 C0.6875 2.4375 0.6875 2.4375 0 0 Z " fill="#0C98CE" transform="translate(14,30)"/>
</svg>
